<svg width="25" height="25" viewBox="0 0 25 25" fill="none" xmlns="http://www.w3.org/2000/svg">
<path d="M10.4166 17.1875L16.6666 12.5L10.4166 7.81248V17.1875ZM12.5 2.08331C6.74998 2.08331 2.08331 6.74998 2.08331 12.5C2.08331 18.25 6.74998 22.9166 12.5 22.9166C18.25 22.9166 22.9166 18.25 22.9166 12.5C22.9166 6.74998 18.25 2.08331 12.5 2.08331ZM12.5 20.8333C7.90623 20.8333 4.16665 17.0937 4.16665 12.5C4.16665 7.90623 7.90623 4.16665 12.5 4.16665C17.0937 4.16665 20.8333 7.90623 20.8333 12.5C20.8333 17.0937 17.0937 20.8333 12.5 20.8333Z" fill="#A7A7A7"/>
</svg>
