<svg width="25" height="25" viewBox="0 0 25 25" fill="none" xmlns="http://www.w3.org/2000/svg">
<g clip-path="url(#clip0_46_195)">
<path d="M20.9924 18.8483H19.8631L19.4629 18.4623C20.8637 16.8328 21.707 14.7173 21.707 12.416C21.707 7.28452 17.5475 3.125 12.416 3.125C7.28452 3.125 3.125 7.28452 3.125 12.416C3.125 17.5475 7.28452 21.707 12.416 21.707C14.7173 21.707 16.8328 20.8637 18.4623 19.4629L18.8483 19.8631V20.9924L25.9952 28.125L28.125 25.9952L20.9924 18.8483ZM12.416 18.8483C8.85685 18.8483 5.98378 15.9752 5.98378 12.416C5.98378 8.85685 8.85685 5.98378 12.416 5.98378C15.9752 5.98378 18.8483 8.85685 18.8483 12.416C18.8483 15.9752 15.9752 18.8483 12.416 18.8483Z" fill="#777777" fill-opacity="0.65"/>
</g>
<defs>
<clipPath id="clip0_46_195">
<rect width="25" height="25" fill="white"/>
</clipPath>
</defs>
</svg>
